<?xml version="1.0" standalone="no"?><!DOCTYPE svg PUBLIC "-//W3C//DTD SVG 1.1//EN" "http://www.w3.org/Graphics/SVG/1.1/DTD/svg11.dtd"><svg t="1600176832258" class="icon" viewBox="0 0 1024 1024" version="1.1" xmlns="http://www.w3.org/2000/svg" p-id="1803" xmlns:xlink="http://www.w3.org/1999/xlink" width="200" height="200"><defs><style type="text/css"></style></defs><path d="M206.431406 364.00548v525.420005c0 31.522275 25.817548 57.12041 57.778647 57.12041h494.994794c31.9611 0 57.778648-25.671273 57.778647-57.12041V364.00548H206.431406z m687.931593 0v525.420005c0 74.454004-60.557874 134.573053-135.158152 134.573052H264.210053a134.792465 134.792465 0 0 1-135.23129-134.573052V364.00548H54.817309a38.616615 38.616615 0 0 1-38.616615-38.689753v-36.203077c0-41.542116 16.090256-83.815608 44.39448-116.069257a163.535514 163.535514 0 0 1 124.918899-56.389035h652.679304c49.879794 0 93.616037 20.624783 124.772624 56.169622 28.304224 32.107375 44.175067 74.454004 44.175067 116.28867v36.129939a38.616615 38.616615 0 0 1-38.616615 38.689753h-74.161454zM339.76112 77.452643a38.689753 38.689753 0 1 1 0-77.379505h343.965797a38.76289 38.76289 0 0 1 0 77.379505H339.76112z m565.060546 146.494469a86.009734 86.009734 0 0 0-66.628289-29.766974H185.514073c-26.987748 0-49.952932 10.751217-66.847702 30.059525a101.368615 101.368615 0 0 0-25.086172 62.313174h836.254502a101.953715 101.953715 0 0 0-25.013035-62.605725zM323.012626 517.59429a38.616615 38.616615 0 0 1 77.379505 0v282.749685c0 21.356158-17.260457 38.616615-38.689752 38.616615s-38.689753-17.260457-38.689753-38.616615V517.59429z m150.517034 0a38.689753 38.689753 0 0 1 77.379505 0v282.749685a38.616615 38.616615 0 0 1-77.379505 0V517.59429z m150.443896 0a38.689753 38.689753 0 0 1 77.379505 0v282.749685a38.616615 38.616615 0 1 1-77.379505 0V517.59429z m0 0" p-id="1804" fill="#757575"></path></svg>