<?xml version="1.0" standalone="no"?><!DOCTYPE svg PUBLIC "-//W3C//DTD SVG 1.1//EN" "http://www.w3.org/Graphics/SVG/1.1/DTD/svg11.dtd"><svg t="1600854658479" class="icon" viewBox="0 0 1068 1024" version="1.1" xmlns="http://www.w3.org/2000/svg" p-id="8009" xmlns:xlink="http://www.w3.org/1999/xlink" width="208.59375" height="200"><defs><style type="text/css"></style></defs><path d="M588.666435 194.738087l115.311304-71.101217a19.144348 19.144348 0 0 0 9.794783-9.794783c7.346087-12.288 4.897391-29.473391-7.346087-36.819478L588.666435 5.87687c-4.897391-2.448696-9.794783-4.897391-14.692174-4.897392a27.202783 27.202783 0 0 0-26.980174 26.980174v144.695652c0 4.897391 2.448696 9.794783 4.897391 14.692174 9.794783 12.288 24.486957 14.736696 36.774957 7.390609z m240.417391 0l115.266783-71.101217c2.448696-2.493217 7.346087-4.897391 7.346087-7.390609 7.346087-12.243478 4.897391-29.384348-7.346087-36.774957L828.994783 8.325565c-4.897391-2.448696-9.794783-4.897391-14.692174-4.897391a27.202783 27.202783 0 0 0-26.980174 26.980174v144.695652c0 4.897391 2.448696 9.794783 4.897391 14.736696 7.346087 9.794783 24.531478 12.243478 36.819478 4.897391z" p-id="8010" fill="#ffffff"></path><path d="M998.310957 305.107478c-26.980174 0-49.062957 22.082783-49.062957 49.062957v529.808695H98.125913V148.123826H399.805217c26.980174 0 49.062957-22.038261 49.062957-49.018435S426.785391 50.042435 399.805217 50.042435H73.594435C34.281739 50.042435 0 81.92 0 123.63687V910.914783c0 39.268174 31.877565 73.594435 73.594435 73.594434h902.633739c39.268174 0 73.594435-31.877565 73.594435-73.594434V354.170435c-2.448696-26.980174-24.531478-49.062957-51.511652-49.062957z" p-id="8011" fill="#ffffff"></path><path d="M450.114783 712.347826H246.205217v-65.892174l114.866087-124.660869c11.575652-12.466087 16.027826-20.48 16.027826-33.836522 0-17.363478-9.794783-29.384348-28.493913-29.384348-13.356522 0-29.384348 6.233043-29.384347 30.72H246.205217c0-62.330435 47.193043-96.612174 102.4-96.612174 58.768696 0 101.509565 36.062609 101.509566 95.721739 0 33.391304-13.801739 51.2-39.179131 77.913044l-75.686956 80.13913h114.866087V712.347826z m126.48626 0h-80.13913v-80.13913h80.13913V712.347826z m252.082087-96.166956c0 65.446957-49.41913 98.838261-101.954782 98.83826s-101.954783-33.391304-101.954783-98.83826v-124.66087c0-65.446957 49.41913-98.838261 101.954783-98.838261s101.954783 33.391304 101.954782 98.838261v124.66087z m-73.015652 0.445217v-125.106087c0-22.26087-13.356522-32.946087-28.93913-32.946087-15.582609 0-28.93913 10.685217-28.939131 32.946087v125.106087c0 22.26087 13.356522 32.50087 28.939131 32.50087 15.582609 0 28.93913-10.24 28.93913-32.50087z" p-id="8012" fill="#ffffff"></path></svg>