<?xml version="1.0" standalone="no"?><!DOCTYPE svg PUBLIC "-//W3C//DTD SVG 1.1//EN" "http://www.w3.org/Graphics/SVG/1.1/DTD/svg11.dtd"><svg t="1600853101434" class="icon" viewBox="0 0 1068 1024" version="1.1" xmlns="http://www.w3.org/2000/svg" p-id="4740" xmlns:xlink="http://www.w3.org/1999/xlink" width="208.59375" height="200"><defs><style type="text/css"></style></defs><path d="M588.666435 194.738087l115.311304-71.101217a19.144348 19.144348 0 0 0 9.794783-9.794783c7.346087-12.288 4.897391-29.473391-7.346087-36.819478L588.666435 5.87687c-4.897391-2.448696-9.794783-4.897391-14.692174-4.897392a27.202783 27.202783 0 0 0-26.980174 26.980174v144.695652c0 4.897391 2.448696 9.794783 4.897391 14.692174 9.794783 12.288 24.486957 14.736696 36.774957 7.390609z m240.417391 0l115.266783-71.101217c2.448696-2.493217 7.346087-4.897391 7.346087-7.390609 7.346087-12.243478 4.897391-29.384348-7.346087-36.774957L828.994783 8.325565c-4.897391-2.448696-9.794783-4.897391-14.692174-4.897391a27.202783 27.202783 0 0 0-26.980174 26.980174v144.695652c0 4.897391 2.448696 9.794783 4.897391 14.736696 7.346087 9.794783 24.531478 12.243478 36.819478 4.897391z" p-id="4741" fill="#ffffff"></path><path d="M998.310957 305.107478c-26.980174 0-49.062957 22.082783-49.062957 49.062957v529.808695H98.125913V148.123826H399.805217c26.980174 0 49.062957-22.038261 49.062957-49.018435S426.785391 50.042435 399.805217 50.042435H73.594435C34.281739 50.042435 0 81.92 0 123.63687V910.914783c0 39.268174 31.877565 73.594435 73.594435 73.594434h902.633739c39.268174 0 73.594435-31.877565 73.594435-73.594434V354.170435c-2.448696-26.980174-24.531478-49.062957-51.511652-49.062957z" p-id="4742" fill="#ffffff"></path><path d="M448.333913 616.18087c0 65.446957-49.41913 98.838261-101.954783 98.83826s-101.954783-33.391304-101.954782-98.83826v-124.66087c0-65.446957 49.41913-98.838261 101.954782-98.838261s101.954783 33.391304 101.954783 98.838261v124.66087z m-73.015652 0.445217v-125.106087c0-22.26087-13.356522-32.946087-28.939131-32.946087-15.582609 0-28.93913 10.685217-28.93913 32.946087v125.106087c0 22.26087 13.356522 32.50087 28.93913 32.50087 15.582609 0 28.93913-10.24 28.939131-32.50087zM576.601043 712.347826h-80.13913v-80.13913h80.13913V712.347826z m254.308174-108.187826c0 38.288696-5.787826 60.104348-29.384347 83.70087-13.801739 13.801739-37.843478 27.158261-73.46087 27.15826-35.617391 0-61.44-13.801739-75.241739-27.603478-22.706087-22.706087-25.822609-48.528696-27.603478-71.68h73.015652c2.226087 20.925217 11.130435 33.391304 29.829565 33.391305 8.904348 0 14.692174-2.226087 20.48-8.013914 6.678261-6.678261 9.349565-18.253913 9.349565-36.953043 0-35.172174-12.02087-44.966957-29.829565-44.966957-21.370435 0-26.713043 14.246957-29.829565 22.706087h-67.227826V395.353043h193.224348v65.892174h-126.886957v48.973913c6.233043-4.897391 23.151304-12.466087 42.74087-12.466087 27.603478 0 48.528696 9.349565 61.44 22.26087 25.822609 25.822609 29.384348 54.316522 29.384347 84.146087z" p-id="4743" fill="#ffffff"></path></svg>