<?xml version="1.0" standalone="no"?><!DOCTYPE svg PUBLIC "-//W3C//DTD SVG 1.1//EN" "http://www.w3.org/Graphics/SVG/1.1/DTD/svg11.dtd"><svg t="1600854674481" class="icon" viewBox="0 0 1068 1024" version="1.1" xmlns="http://www.w3.org/2000/svg" p-id="8248" xmlns:xlink="http://www.w3.org/1999/xlink" width="208.59375" height="200"><defs><style type="text/css"></style></defs><path d="M588.666435 194.738087l115.311304-71.101217a19.144348 19.144348 0 0 0 9.794783-9.794783c7.346087-12.288 4.897391-29.473391-7.346087-36.819478L588.666435 5.87687c-4.897391-2.448696-9.794783-4.897391-14.692174-4.897392a27.202783 27.202783 0 0 0-26.980174 26.980174v144.695652c0 4.897391 2.448696 9.794783 4.897391 14.692174 9.794783 12.288 24.486957 14.736696 36.774957 7.390609z m240.417391 0l115.266783-71.101217c2.448696-2.493217 7.346087-4.897391 7.346087-7.390609 7.346087-12.243478 4.897391-29.384348-7.346087-36.774957L828.994783 8.325565c-4.897391-2.448696-9.794783-4.897391-14.692174-4.897391a27.202783 27.202783 0 0 0-26.980174 26.980174v144.695652c0 4.897391 2.448696 9.794783 4.897391 14.736696 7.346087 9.794783 24.531478 12.243478 36.819478 4.897391z" p-id="8249" fill="#ffffff"></path><path d="M998.310957 305.107478c-26.980174 0-49.062957 22.082783-49.062957 49.062957v529.808695H98.125913V148.123826H399.805217c26.980174 0 49.062957-22.038261 49.062957-49.018435S426.785391 50.042435 399.805217 50.042435H73.594435C34.281739 50.042435 0 81.92 0 123.63687V910.914783c0 39.268174 31.877565 73.594435 73.594435 73.594434h902.633739c39.268174 0 73.594435-31.877565 73.594435-73.594434V354.170435c-2.448696-26.980174-24.531478-49.062957-51.511652-49.062957z" p-id="8250" fill="#ffffff"></path><path d="M244.958609 670.230261c47.282087 0 91.759304-30.052174 91.759304-88.954435v-112.194783c0-58.902261-44.477217-88.954435-91.759304-88.954434-47.282087 0-91.759304 30.052174-91.759305 88.954434v112.194783c0 58.902261 44.477217 88.954435 91.759305 88.954435z m0-59.302957c-14.024348 0-26.045217-9.216-26.045218-29.250782v-112.595479c0-20.034783 12.02087-29.651478 26.045218-29.651478 14.024348 0 26.045217 9.616696 26.045217 29.651478v112.595479c0 20.034783-12.02087 29.250783-26.045217 29.250782zM452.162783 667.826087v-72.125217h-72.125218V667.826087h72.125218z m143.938782 0l88.954435-225.992348V382.530783h-195.539478v104.180869h62.508521V441.833739h60.90574L523.976348 667.826087h72.125217z m216.019478 2.404174c32.055652 0 53.693217-12.02087 66.114783-24.442435 21.23687-21.23687 26.445913-40.870957 26.445913-75.330783 0-26.846609-3.205565-52.49113-26.445913-75.731478-11.620174-11.620174-30.45287-20.034783-55.296-20.034782-17.630609 0-32.857043 6.811826-38.466783 11.219478v-44.076522h114.198261V382.530783h-173.901913v167.891478h60.505044c2.80487-7.613217 7.568696-20.435478 26.846608-20.435478 16.027826 0 26.846609 8.815304 26.846609 40.47026 0 16.829217-2.404174 27.247304-8.45913 33.25774a23.329391 23.329391 0 0 1-18.387479 7.212521c-16.829217 0-24.84313-11.219478-26.846608-30.052174h-65.714087c1.602783 20.836174 4.407652 44.076522 24.84313 64.512 12.421565 12.421565 35.617391 24.84313 67.673044 24.843131z" p-id="8251" fill="#ffffff"></path></svg>